<?xml version="1.0" encoding="UTF-8"?>
<svg width="322px" height="314px" viewBox="0 0 322 314" version="1.1" xmlns="http://www.w3.org/2000/svg" xmlns:xlink="http://www.w3.org/1999/xlink">
    <!-- Generator: Sketch 53.2 (72643) - https://sketchapp.com -->
    <title>logo/vertical</title>
    <desc>Created with Sketch.</desc>
    <defs>
        <polygon id="path-1" points="0.039284906 0.063 65.1191995 0.063 65.1191995 77.6854189 0.039284906 77.6854189"></polygon>
        <polygon id="path-3" points="0 0.7125 11.3247 0.7125 11.3247 12.0385 0 12.0385"></polygon>
        <polygon id="path-5" points="0.190421592 0.992185889 43.645 0.992185889 43.645 67.9665603 0.190421592 67.9665603"></polygon>
        <polygon id="path-7" points="0.1771 0.6802 41.645 0.6802 41.645 47.9172 0.1771 47.9172"></polygon>
    </defs>
    <g id="VI" stroke="none" stroke-width="1" fill="none" fill-rule="evenodd">
        <g id="Artboard" transform="translate(-110.000000, -450.000000)">
            <g id="logo/vertical" transform="translate(110.000000, 449.000000)">
                <g id="Group-37">
                    <path d="M100.0544,75.5215 C99.3704,72.1535 97.9504,68.9485 95.9214,66.1755 C93.9214,63.4425 91.3434,61.1415 88.3994,59.4655 C84.9634,57.5105 81.1464,56.6665 77.2864,55.9815 C73.1614,55.2485 68.9864,54.7975 64.8044,54.5595 C63.0124,54.4575 61.2224,54.4195 59.4284,54.3935 C57.6344,54.4195 55.8444,54.4575 54.0524,54.5595 C49.8704,54.7975 45.6954,55.2485 41.5704,55.9815 C37.7104,56.6665 33.8934,57.5105 30.4574,59.4655 C27.5134,61.1415 24.9354,63.4425 22.9354,66.1755 C20.9064,68.9485 19.4864,72.1535 18.8024,75.5215 C18.4834,77.0975 18.3244,78.7045 18.3244,80.3125 C18.3244,81.9205 18.4834,83.5285 18.8024,85.1045 C19.4864,88.4725 20.9064,91.6765 22.9354,94.4495 C24.9354,97.1835 27.5134,99.4845 30.4574,101.1595 C33.8934,103.1155 37.7104,103.9585 41.5704,104.6445 C45.6954,105.3765 49.8704,105.8285 54.0524,106.0665 C55.8444,106.1685 57.6344,106.2055 59.4284,106.2315 C61.2224,106.2055 63.0124,106.1685 64.8044,106.0665 C68.9864,105.8285 73.1614,105.3765 77.2864,104.6445 C81.1464,103.9585 84.9634,103.1155 88.3994,101.1595 C91.3434,99.4845 93.9214,97.1835 95.9214,94.4495 C97.9504,91.6765 99.3704,88.4725 100.0544,85.1045 C100.3734,83.5285 100.5334,81.9205 100.5334,80.3125 C100.5334,78.7045 100.3734,77.0975 100.0544,75.5215" id="Fill-1" fill="#D92F17"></path>
                    <path d="M233.9245,145.1987 C233.2415,141.8307 231.8205,138.6257 229.7925,135.8527 C227.7925,133.1197 225.2135,130.8187 222.2705,129.1427 C218.8335,127.1877 215.0175,126.3437 211.1575,125.6587 C207.0325,124.9257 202.8575,124.4747 198.6755,124.2367 C196.8835,124.1347 195.0935,124.0967 193.2995,124.0707 C191.5055,124.0967 189.7155,124.1347 187.9235,124.2367 C183.7405,124.4747 179.5665,124.9257 175.4415,125.6587 C171.5815,126.3437 167.7645,127.1877 164.3285,129.1427 C161.3845,130.8187 158.8065,133.1197 156.8065,135.8527 C154.7775,138.6257 153.3575,141.8307 152.6735,145.1987 C152.3545,146.7747 152.1955,148.3817 152.1955,149.9897 C152.1955,151.5977 152.3545,153.2057 152.6735,154.7817 C153.3575,158.1497 154.7775,161.3547 156.8065,164.1267 C158.8065,166.8607 161.3845,169.1617 164.3285,170.8367 C167.7645,172.7917 171.5815,173.6357 175.4415,174.3217 C179.5665,175.0537 183.7405,175.5047 187.9235,175.7427 C189.7155,175.8457 191.5055,175.8827 193.2995,175.9087 C195.0935,175.8827 196.8835,175.8457 198.6755,175.7427 C202.8575,175.5047 207.0325,175.0537 211.1575,174.3217 C215.0175,173.6357 218.8335,172.7917 222.2705,170.8367 C225.2135,169.1617 227.7925,166.8607 229.7925,164.1267 C231.8205,161.3547 233.2415,158.1497 233.9245,154.7817 C234.2445,153.2057 234.4035,151.5977 234.4035,149.9897 C234.4035,148.3817 234.2445,146.7747 233.9245,145.1987" id="Fill-3" fill="#D92F17"></path>
                    <g id="Group-7" transform="translate(97.000000, 0.937000)">
                        <mask id="mask-2" fill="white">
                            <use xlink:href="#path-1"></use>
                        </mask>
                        <g id="Clip-6"></g>
                        <path d="M16.4157,76.4527 C19.6747,77.5447 23.1597,77.9167 26.5757,77.5467 C29.9427,77.1817 33.2257,76.0987 36.1477,74.3877 C39.5597,72.3897 42.1987,69.5047 44.7227,66.5057 C47.4187,63.2997 49.8967,59.9097 52.1937,56.4067 C53.1797,54.9057 54.1057,53.3737 55.0257,51.8337 C55.8997,50.2667 56.7637,48.6977 57.5707,47.0947 C59.4547,43.3547 61.1517,39.5127 62.5807,35.5747 C63.9167,31.8897 65.0947,28.1617 65.1187,24.2077 C65.1407,20.8207 64.4357,17.4377 63.0687,14.3387 C61.6827,11.1947 59.6167,8.3627 57.0417,6.0867 C55.8367,5.0217 54.5237,4.0797 53.1317,3.2767 C51.7387,2.4727 50.2677,1.8067 48.7427,1.2957 C45.4837,0.2027 41.9987,-0.1693 38.5827,0.2017 C35.2157,0.5667 31.9337,1.6497 29.0107,3.3607 C25.5997,5.3587 22.9597,8.2437 20.4367,11.2427 C17.7397,14.4487 15.2617,17.8387 12.9647,21.3417 C11.9797,22.8427 11.0527,24.3737 10.1327,25.9147 C9.2587,27.4817 8.3957,29.0507 7.5887,30.6537 C5.7037,34.3937 4.0067,38.2357 2.5787,42.1737 C1.2427,45.8587 0.0637,49.5867 0.0397,53.5397 C0.0197,56.9277 0.7227,60.3107 2.0897,63.4097 C3.4777,66.5537 5.5417,69.3857 8.1167,71.6607 C9.3217,72.7257 10.6347,73.6677 12.0267,74.4717 C13.4197,75.2757 14.8917,75.9417 16.4157,76.4527" id="Fill-5" fill="#D92F17" mask="url(#mask-2)"></path>
                    </g>
                    <path d="M106.3425,87.0381 C103.9565,88.8881 101.9315,91.1911 100.4015,93.7941 C98.9045,96.3391 97.8845,99.1591 97.4035,102.0721 C96.9185,105.0071 96.9825,108.0281 97.5995,110.9381 C97.8585,112.1621 98.2125,113.3671 98.6305,114.5541 C99.5295,117.1001 100.7255,119.5621 101.9275,121.9441 C102.8765,123.8241 103.8645,125.6901 104.9175,127.5141 C105.9715,129.3381 107.0935,131.1271 108.2465,132.8891 C109.7085,135.1211 111.2425,137.3891 112.9985,139.4391 C113.8175,140.3951 114.6845,141.3041 115.6135,142.1411 C117.8255,144.1301 120.4105,145.6961 123.1955,146.7441 C125.9575,147.7831 128.9095,148.3101 131.8625,148.2871 C134.8815,148.2631 137.8885,147.6601 140.6845,146.5181 C141.6985,146.1041 142.6865,145.6201 143.6355,145.0711 C144.5855,144.5231 145.4985,143.9111 146.3645,143.2391 C148.7505,141.3891 150.7765,139.0851 152.3065,136.4831 C153.8035,133.9381 154.8225,131.1181 155.3045,128.2051 C155.7895,125.2701 155.7255,122.2491 155.1085,119.3381 C154.8495,118.1151 154.4955,116.9101 154.0765,115.7231 C153.1785,113.1771 151.9825,110.7151 150.7795,108.3321 C149.8305,106.4531 148.8425,104.5871 147.7895,102.7631 C146.7365,100.9381 145.6145,99.1501 144.4605,97.3881 C142.9985,95.1561 141.4645,92.8881 139.7085,90.8371 C138.8905,89.8811 138.0245,88.9731 137.0935,88.1361 C134.8815,86.1471 132.2975,84.5801 129.5135,83.5331 C126.7495,82.4941 123.7975,81.9671 120.8455,81.9901 C117.8255,82.0141 114.8195,82.6171 112.0245,83.7581 C111.0085,84.1731 110.0225,84.6571 109.0715,85.2051 C108.1215,85.7541 107.2095,86.3661 106.3425,87.0381" id="Fill-8" fill="#D92F17"></path>
                    <path d="M240.2165,156.666 C237.8305,158.517 235.8055,160.819 234.2755,163.422 C232.7785,165.967 231.7585,168.787 231.2775,171.7 C230.7925,174.635 230.8565,177.656 231.4735,180.566 C231.7325,181.79 232.0865,182.995 232.5045,184.182 C233.4035,186.728 234.5995,189.19 235.8015,191.572 C236.7505,193.453 237.7385,195.318 238.7915,197.143 C239.8455,198.967 240.9675,200.755 242.1205,202.518 C243.5825,204.75 245.1165,207.017 246.8725,209.067 C247.6915,210.023 248.5585,210.933 249.4875,211.769 C251.6995,213.759 254.2845,215.324 257.0695,216.372 C259.8315,217.411 262.7835,217.938 265.7365,217.915 C268.7555,217.891 271.7625,217.288 274.5585,216.146 C275.5725,215.732 276.5605,215.248 277.5095,214.7 C278.4595,214.151 279.3715,213.539 280.2385,212.867 C282.6245,211.017 284.6505,208.714 286.1805,206.111 C287.6775,203.566 288.6965,200.746 289.1785,197.833 C289.6635,194.898 289.5995,191.877 288.9825,188.967 C288.7235,187.743 288.3695,186.538 287.9505,185.352 C287.0525,182.806 285.8565,180.343 284.6545,177.961 C283.7045,176.081 282.7165,174.216 281.6635,172.391 C280.6105,170.566 279.4885,168.778 278.3345,167.016 C276.8725,164.784 275.3385,162.517 273.5825,160.466 C272.7645,159.51 271.8985,158.601 270.9675,157.765 C268.7555,155.775 266.1715,154.209 263.3875,153.162 C260.6235,152.122 257.6715,151.595 254.7195,151.619 C251.6995,151.643 248.6935,152.245 245.8975,153.386 C244.8825,153.801 243.8965,154.285 242.9455,154.834 C241.9955,155.382 241.0835,155.994 240.2165,156.666" id="Fill-10" fill="#D92F17"></path>
                    <path d="M245.82,146.4512 C248.616,147.5922 251.623,148.1952 254.642,148.2192 C257.594,148.2422 260.547,147.7152 263.31,146.6762 C266.094,145.6282 268.678,144.0622 270.89,142.0732 C271.821,141.2372 272.687,140.3272 273.506,139.3722 C275.261,137.3212 276.796,135.0542 278.258,132.8212 C279.412,131.0592 280.533,129.2712 281.587,127.4472 C282.639,125.6222 283.628,123.7572 284.577,121.8762 C285.779,119.4942 286.975,117.0322 287.874,114.4862 C288.293,113.2992 288.646,112.0942 288.905,110.8702 C289.522,107.9602 289.587,104.9392 289.101,102.0042 C288.62,99.0912 287.6,96.2712 286.103,93.7262 C284.573,91.1232 282.548,88.8202 280.162,86.9702 C279.295,86.2982 278.383,85.6862 277.432,85.1382 C276.483,84.5892 275.496,84.1052 274.481,83.6902 C271.685,82.5492 268.678,81.9462 265.659,81.9222 C262.707,81.8992 259.755,82.4262 256.992,83.4652 C254.207,84.5132 251.623,86.0792 249.411,88.0682 C248.481,88.9052 247.614,89.8132 246.796,90.7692 C245.04,92.8202 243.506,95.0882 242.044,97.3202 C240.89,99.0822 239.768,100.8702 238.715,102.6952 C237.662,104.5192 236.674,106.3852 235.724,108.2652 C234.522,110.6472 233.326,113.1092 232.427,115.6552 C232.009,116.8422 231.655,118.0472 231.396,119.2702 C230.779,122.1812 230.716,125.2022 231.2,128.1372 C231.681,131.0502 232.701,133.8702 234.198,136.4152 C235.728,139.0172 237.754,141.3212 240.139,143.1712 C241.007,143.8432 241.919,144.4552 242.869,145.0042 C243.818,145.5522 244.805,146.0362 245.82,146.4512" id="Fill-12" fill="#D92F17"></path>
                    <path d="M112.1013,216.2148 C114.8963,217.3568 117.9043,217.9588 120.9223,217.9828 C123.8743,218.0058 126.8273,217.4798 129.5903,216.4398 C132.3743,215.3928 134.9583,213.8258 137.1713,211.8368 C138.1013,210.9998 138.9673,210.0918 139.7863,209.1358 C141.5423,207.0848 143.0773,204.8178 144.5383,202.5848 C145.6923,200.8228 146.8133,199.0338 147.8673,197.2098 C148.9193,195.3858 149.9083,193.5208 150.8573,191.6398 C152.0593,189.2578 153.2553,186.7958 154.1543,184.2498 C154.5733,183.0628 154.9263,181.8578 155.1863,180.6348 C155.8023,177.7238 155.8673,174.7028 155.3813,171.7678 C154.9003,168.8558 153.8803,166.0348 152.3843,163.4898 C150.8543,160.8878 148.8283,158.5838 146.4423,156.7348 C145.5763,156.0618 144.6633,155.4488 143.7123,154.9018 C142.7633,154.3528 141.7773,153.8688 140.7613,153.4538 C137.9653,152.3128 134.9583,151.7108 131.9393,151.6868 C128.9873,151.6628 126.0353,152.1898 123.2723,153.2288 C120.4883,154.2768 117.9033,155.8428 115.6913,157.8318 C114.7613,158.6678 113.8943,159.5768 113.0763,160.5328 C111.3203,162.5838 109.7863,164.8518 108.3243,167.0838 C107.1703,168.8458 106.0493,170.6338 104.9963,172.4578 C103.9423,174.2828 102.9543,176.1488 102.0053,178.0278 C100.8023,180.4098 99.6063,182.8728 98.7073,185.4188 C98.2893,186.6058 97.9353,187.8108 97.6763,189.0338 C97.0593,191.9448 96.9963,194.9658 97.4803,197.9018 C97.9613,200.8138 98.9823,203.6338 100.4783,206.1788 C102.0083,208.7808 104.0343,211.0848 106.4193,212.9348 C107.2873,213.6068 108.2003,214.2188 109.1493,214.7678 C110.0993,215.3158 111.0853,215.7998 112.1013,216.2148" id="Fill-14" fill="#D92F17"></path>
                    <g id="Group-18" transform="translate(0.000000, 73.937000)">
                        <mask id="mask-4" fill="white">
                            <use xlink:href="#path-3"></use>
                        </mask>
                        <g id="Clip-17"></g>
                        <path d="M-0.0003,6.3755 C-0.0003,3.2485 2.5347,0.7125 5.6627,0.7125 C8.7897,0.7125 11.3247,3.2485 11.3247,6.3755 C11.3247,9.5025 8.7897,12.0385 5.6627,12.0385 C2.5347,12.0385 -0.0003,9.5025 -0.0003,6.3755" id="Fill-16" fill="#D92F17" mask="url(#mask-4)"></path>
                    </g>
                    <g id="Group-21" transform="translate(278.000000, 11.937000)">
                        <mask id="mask-6" fill="white">
                            <use xlink:href="#path-5"></use>
                        </mask>
                        <g id="Clip-20"></g>
                        <path d="M40.8132,1.752 C38.1052,0.188 34.6412,1.116 33.0782,3.824 L0.9502,59.472 C-0.6138,62.18 0.3142,65.643 3.0232,67.207 C5.7312,68.771 9.1942,67.842 10.7582,65.134 L42.8852,9.487 C44.4502,6.779 43.5212,3.315 40.8132,1.752" id="Fill-19" fill="#D92F17" mask="url(#mask-6)"></path>
                    </g>
                    <path d="M31.487,287.8936 L47.486,287.8936 C52.277,287.8936 55.372,290.6356 55.372,294.8786 C55.372,299.3736 52.498,301.9536 47.486,301.9536 L31.487,301.9536 L31.487,287.8936 Z M47.035,275.9926 L31.487,275.9926 L31.487,263.0146 L47.035,263.0146 C51.454,263.0146 54.2,265.5186 54.2,269.5486 C54.2,273.5236 51.454,275.9926 47.035,275.9926 L47.035,275.9926 Z M59.876,281.4516 C64.131,279.1756 67.634,274.5596 67.634,267.7466 C67.634,257.7966 60.226,251.1136 49.199,251.1136 L19.633,251.1136 C18.909,251.1136 18.324,251.6996 18.324,252.4216 L18.324,312.5466 C18.324,313.2696 18.909,313.8546 19.633,313.8546 L50.009,313.8546 C61.428,313.8546 68.805,306.9726 68.805,296.3216 C68.805,289.8866 65.102,284.0126 59.876,281.4516 L59.876,281.4516 Z" id="Fill-22" fill="#000818"></path>
                    <path d="M103.0583,296.4971 L103.0583,302.1841 C101.2053,304.4421 97.7833,305.8301 93.9993,305.8301 C89.2283,305.8301 86.0233,303.2401 86.0233,299.3861 C86.0233,295.4781 89.2283,292.8511 93.9993,292.8511 C97.7833,292.8511 101.2053,294.2391 103.0583,296.4971 M95.7123,266.6171 C88.2613,266.6171 81.6213,269.1731 76.5133,274.0071 C76.0713,274.4261 75.9763,275.0961 76.2863,275.6221 L80.1623,282.2021 C80.3673,282.5491 80.7183,282.7821 81.1173,282.8351 C81.5153,282.8871 81.9163,282.7561 82.2043,282.4741 C85.7373,279.0241 89.6543,277.3481 94.1793,277.3481 C99.6563,277.3481 103.0583,279.9551 103.0583,284.1511 L103.0583,287.6101 C99.7873,285.1001 95.3713,283.7451 90.3043,283.7451 C82.3793,283.7451 73.8513,288.5831 73.8513,299.2061 C73.8513,309.4241 82.3293,314.9361 90.3043,314.9361 C95.2653,314.9361 99.6863,313.5161 103.0583,310.8851 L103.0583,312.5471 C103.0583,313.2691 103.6433,313.8541 104.3663,313.8541 L113.8303,313.8541 C114.5533,313.8541 115.1393,313.2691 115.1393,312.5471 L115.1393,283.7011 C115.1393,272.8441 108.0593,266.6171 95.7123,266.6171" id="Fill-24" fill="#000818"></path>
                    <path d="M148.7956,266.707 C144.2066,266.707 139.5946,268.66 135.9516,272.051 L135.9516,269.008 C135.9516,268.284 135.3666,267.699 134.6436,267.699 L125.1786,267.699 C124.4546,267.699 123.8696,268.284 123.8696,269.008 L123.8696,312.547 C123.8696,313.27 124.4546,313.854 125.1786,313.854 L134.6436,313.854 C135.3666,313.854 135.9516,313.27 135.9516,312.547 L135.9516,283.283 C137.7526,280.749 142.4136,278.429 145.8206,278.429 C146.8926,278.429 147.7976,278.51 148.5116,278.669 C148.9006,278.753 149.3046,278.66 149.6136,278.411 C149.9246,278.164 150.1046,277.788 150.1046,277.391 L150.1046,268.016 C150.1046,267.293 149.5196,266.707 148.7956,266.707" id="Fill-26" fill="#000818"></path>
                    <path d="M165.9216,251.1133 L156.4566,251.1133 C155.7336,251.1133 155.1486,251.6993 155.1486,252.4223 L155.1486,312.5473 C155.1486,313.2693 155.7336,313.8543 156.4566,313.8543 L165.9216,313.8543 C166.6456,313.8543 167.2306,313.2693 167.2306,312.5473 L167.2306,252.4223 C167.2306,251.6993 166.6456,251.1133 165.9216,251.1133" id="Fill-28" fill="#000818"></path>
                    <path d="M197.8327,303.9375 C190.1227,303.9375 186.6097,297.0915 186.6097,290.7325 C186.6097,284.4165 190.1227,277.6185 197.8327,277.6185 C205.6037,277.6185 209.1447,284.4165 209.1447,290.7325 C209.1447,297.0915 205.6037,303.9375 197.8327,303.9375 M197.8327,266.6175 C184.1207,266.6175 174.1687,276.7585 174.1687,290.7325 C174.1687,304.7575 184.1207,314.9365 197.8327,314.9365 C211.5957,314.9365 221.5857,304.7575 221.5857,290.7325 C221.5857,276.7585 211.5957,266.6175 197.8327,266.6175" id="Fill-30" fill="#000818"></path>
                    <path d="M249.485,303.9375 C241.775,303.9375 238.263,297.0915 238.263,290.7325 C238.263,284.4165 241.775,277.6185 249.485,277.6185 C257.256,277.6185 260.797,284.4165 260.797,290.7325 C260.797,297.0915 257.256,303.9375 249.485,303.9375 M249.485,266.6175 C235.773,266.6175 225.821,276.7585 225.821,290.7325 C225.821,304.7575 235.773,314.9365 249.485,314.9365 C263.249,314.9365 273.238,304.7575 273.238,290.7325 C273.238,276.7585 263.249,266.6175 249.485,266.6175" id="Fill-32" fill="#000818"></path>
                    <g id="Group-36" transform="translate(280.000000, 265.937000)">
                        <mask id="mask-8" fill="white">
                            <use xlink:href="#path-7"></use>
                        </mask>
                        <g id="Clip-35"></g>
                        <path d="M26.2751,0.6802 C20.4581,0.6802 15.5661,3.0852 12.2591,5.8782 L12.2591,3.0712 C12.2591,2.3472 11.6741,1.7622 10.9521,1.7622 L1.4861,1.7622 C0.7631,1.7622 0.1771,2.3472 0.1771,3.0712 L0.1771,46.6102 C0.1771,47.3322 0.7631,47.9172 1.4861,47.9172 L10.9521,47.9172 C11.6741,47.9172 12.2591,47.3322 12.2591,46.6102 L12.2591,16.6712 C14.1291,14.2972 17.7211,11.6812 22.1291,11.6812 C27.3401,11.6812 29.5641,13.9862 29.5641,19.3862 L29.5641,46.6102 C29.5641,47.3322 30.1501,47.9172 30.8731,47.9172 L40.3381,47.9172 C41.0601,47.9172 41.6451,47.3322 41.6451,46.6102 L41.6451,15.9612 C41.6451,6.1072 36.1871,0.6802 26.2751,0.6802" id="Fill-34" fill="#000818" mask="url(#mask-8)"></path>
                    </g>
                </g>
            </g>
        </g>
    </g>
</svg>