<?xml version="1.0" encoding="UTF-8"?>
<svg width="322px" height="314px" viewBox="0 0 322 314" version="1.1" xmlns="http://www.w3.org/2000/svg" xmlns:xlink="http://www.w3.org/1999/xlink">
    <!-- Generator: Sketch 53.2 (72643) - https://sketchapp.com -->
    <title>logo/vertical_white</title>
    <desc>Created with Sketch.</desc>
    <defs>
        <polygon id="path-1" points="0.0390854745 0.063 65.1190002 0.063 65.1190002 77.6853189 0.0390854745 77.6853189"></polygon>
        <polygon id="path-3" points="0.190221592 0.992085889 43.645 0.992085889 43.645 67.9666784 0.190221592 67.9666784"></polygon>
        <polygon id="path-5" points="0.1779 0.6806 41.645 0.6806 41.645 47.9176 0.1779 47.9176"></polygon>
    </defs>
    <g id="VI" stroke="none" stroke-width="1" fill="none" fill-rule="evenodd">
        <g id="Artboard" transform="translate(-110.000000, -866.000000)">
            <g id="logo/vertical_white" transform="translate(110.000000, 865.000000)">
                <g id="Group-36">
                    <path d="M100.0542,75.5214 C99.3702,72.1534 97.9502,68.9484 95.9212,66.1754 C93.9212,63.4424 91.3432,61.1414 88.3992,59.4654 C84.9632,57.5104 81.1462,56.6664 77.2862,55.9814 C73.1612,55.2484 68.9862,54.7974 64.8042,54.5594 C63.0122,54.4574 61.2222,54.4204 59.4282,54.3934 C57.6342,54.4204 55.8442,54.4574 54.0522,54.5594 C49.8702,54.7974 45.6952,55.2484 41.5702,55.9814 C37.7102,56.6664 33.8932,57.5104 30.4572,59.4654 C27.5142,61.1414 24.9352,63.4424 22.9352,66.1754 C20.9072,68.9484 19.4862,72.1534 18.8032,75.5214 C18.4832,77.0974 18.3242,78.7054 18.3242,80.3134 C18.3242,81.9204 18.4832,83.5284 18.8032,85.1044 C19.4862,88.4724 20.9072,91.6764 22.9352,94.4494 C24.9352,97.1834 27.5142,99.4844 30.4572,101.1594 C33.8932,103.1154 37.7102,103.9584 41.5702,104.6444 C45.6952,105.3764 49.8702,105.8284 54.0522,106.0664 C55.8442,106.1684 57.6342,106.2054 59.4282,106.2314 C61.2222,106.2054 63.0122,106.1684 64.8042,106.0664 C68.9862,105.8284 73.1612,105.3764 77.2862,104.6444 C81.1462,103.9584 84.9632,103.1154 88.3992,101.1594 C91.3432,99.4844 93.9212,97.1834 95.9212,94.4494 C97.9502,91.6764 99.3702,88.4724 100.0542,85.1044 C100.3732,83.5284 100.5332,81.9204 100.5332,80.3134 C100.5332,78.7054 100.3732,77.0974 100.0542,75.5214" id="Fill-1" fill="#FEFEFE"></path>
                    <path d="M233.9252,145.1987 C233.2412,141.8307 231.8212,138.6257 229.7922,135.8527 C227.7922,133.1197 225.2142,130.8187 222.2702,129.1427 C218.8342,127.1877 215.0172,126.3447 211.1572,125.6587 C207.0322,124.9257 202.8572,124.4747 198.6752,124.2367 C196.8832,124.1347 195.0932,124.0977 193.2992,124.0707 C191.5052,124.0977 189.7152,124.1347 187.9232,124.2367 C183.7412,124.4747 179.5662,124.9257 175.4412,125.6587 C171.5812,126.3447 167.7642,127.1877 164.3282,129.1427 C161.3842,130.8187 158.8062,133.1197 156.8062,135.8527 C154.7772,138.6257 153.3572,141.8307 152.6732,145.1987 C152.3542,146.7747 152.1952,148.3827 152.1952,149.9907 C152.1952,151.5977 152.3542,153.2057 152.6732,154.7817 C153.3572,158.1497 154.7772,161.3537 156.8062,164.1277 C158.8062,166.8607 161.3842,169.1617 164.3282,170.8377 C167.7642,172.7927 171.5812,173.6357 175.4412,174.3217 C179.5662,175.0537 183.7412,175.5057 187.9232,175.7437 C189.7152,175.8447 191.5052,175.8827 193.2992,175.9097 C195.0932,175.8827 196.8832,175.8447 198.6752,175.7437 C202.8572,175.5057 207.0322,175.0537 211.1572,174.3217 C215.0172,173.6357 218.8342,172.7927 222.2702,170.8377 C225.2142,169.1617 227.7922,166.8607 229.7922,164.1277 C231.8212,161.3537 233.2412,158.1497 233.9252,154.7817 C234.2442,153.2057 234.4042,151.5977 234.4042,149.9907 C234.4042,148.3827 234.2442,146.7747 233.9252,145.1987" id="Fill-3" fill="#FEFEFE"></path>
                    <g id="Group-7" transform="translate(97.000000, 0.937000)">
                        <mask id="mask-2" fill="white">
                            <use xlink:href="#path-1"></use>
                        </mask>
                        <g id="Clip-6"></g>
                        <path d="M16.4165,76.4526 C19.6745,77.5446 23.1595,77.9166 26.5755,77.5466 C29.9425,77.1816 33.2255,76.0986 36.1475,74.3876 C39.5595,72.3896 42.1985,69.5046 44.7225,66.5056 C47.4195,63.2996 49.8965,59.9096 52.1945,56.4066 C53.1795,54.9056 54.1055,53.3736 55.0255,51.8336 C55.8995,50.2666 56.7635,48.6986 57.5705,47.0956 C59.4555,43.3546 61.1525,39.5126 62.5805,35.5746 C63.9165,31.8896 65.0945,28.1616 65.1185,24.2076 C65.1405,20.8216 64.4365,17.4376 63.0685,14.3386 C61.6825,11.1956 59.6165,8.3626 57.0415,6.0866 C55.8375,5.0216 54.5235,4.0806 53.1315,3.2766 C51.7395,2.4726 50.2675,1.8066 48.7425,1.2956 C45.4845,0.2036 41.9985,-0.1694 38.5825,0.2016 C35.2155,0.5666 31.9335,1.6496 29.0115,3.3606 C25.5995,5.3586 22.9605,8.2436 20.4375,11.2426 C17.7395,14.4486 15.2615,17.8396 12.9645,21.3416 C11.9795,22.8426 11.0535,24.3736 10.1325,25.9146 C9.2595,27.4816 8.3955,29.0506 7.5885,30.6536 C5.7035,34.3936 4.0065,38.2356 2.5785,42.1736 C1.2425,45.8586 0.0645,49.5866 0.0395,53.5396 C0.0195,56.9276 0.7235,60.3106 2.0905,63.4096 C3.4775,66.5536 5.5425,69.3856 8.1165,71.6606 C9.3215,72.7256 10.6345,73.6676 12.0265,74.4716 C13.4195,75.2756 14.8915,75.9416 16.4165,76.4526" id="Fill-5" fill="#FEFEFE" mask="url(#mask-2)"></path>
                    </g>
                    <path d="M106.3432,87.038 C103.9562,88.888 101.9312,91.191 100.4012,93.794 C98.9052,96.339 97.8842,99.159 97.4042,102.072 C96.9182,105.007 96.9832,108.028 97.5992,110.938 C97.8592,112.162 98.2122,113.367 98.6312,114.554 C99.5292,117.1 100.7252,119.562 101.9282,121.944 C102.8772,123.825 103.8642,125.69 104.9182,127.515 C105.9722,129.339 107.0932,131.127 108.2462,132.889 C109.7082,135.121 111.2422,137.389 112.9982,139.439 C113.8172,140.395 114.6842,141.305 115.6142,142.141 C117.8252,144.13 120.4102,145.696 123.1952,146.744 C125.9572,147.783 128.9092,148.31 131.8622,148.287 C134.8812,148.263 137.8892,147.66 140.6842,146.519 C141.6992,146.104 142.6862,145.62 143.6362,145.072 C144.5852,144.523 145.4982,143.911 146.3642,143.239 C148.7512,141.389 150.7772,139.085 152.3072,136.483 C153.8032,133.938 154.8222,131.118 155.3042,128.205 C155.7892,125.27 155.7252,122.249 155.1092,119.338 C154.8492,118.115 154.4952,116.91 154.0762,115.723 C153.1792,113.177 151.9822,110.715 150.7802,108.333 C149.8302,106.453 148.8422,104.587 147.7892,102.763 C146.7362,100.938 145.6142,99.15 144.4602,97.388 C142.9992,95.156 141.4652,92.888 139.7092,90.837 C138.8902,89.881 138.0242,88.973 137.0942,88.136 C134.8812,86.147 132.2972,84.58 129.5132,83.533 C126.7492,82.494 123.7982,81.967 120.8452,81.99 C117.8262,82.014 114.8192,82.617 112.0242,83.758 C111.0082,84.173 110.0222,84.657 109.0722,85.205 C108.1222,85.754 107.2092,86.366 106.3432,87.038" id="Fill-8" fill="#FEFEFE"></path>
                    <path d="M240.2172,156.666 C237.8302,158.517 235.8052,160.82 234.2752,163.422 C232.7792,165.967 231.7582,168.788 231.2772,171.7 C230.7922,174.635 230.8562,177.656 231.4732,180.567 C231.7332,181.791 232.0862,182.996 232.5042,184.182 C233.4032,186.728 234.5992,189.191 235.8022,191.573 C236.7512,193.453 237.7382,195.318 238.7922,197.143 C239.8462,198.967 240.9672,200.755 242.1202,202.517 C243.5822,204.749 245.1162,207.017 246.8722,209.068 C247.6912,210.024 248.5582,210.933 249.4882,211.769 C251.6992,213.758 254.2842,215.325 257.0692,216.372 C259.8312,217.412 262.7832,217.938 265.7362,217.915 C268.7552,217.891 271.7632,217.289 274.5582,216.147 C275.5732,215.733 276.5602,215.249 277.5092,214.7 C278.4592,214.152 279.3722,213.54 280.2382,212.867 C282.6252,211.017 284.6512,208.713 286.1812,206.111 C287.6772,203.566 288.6972,200.746 289.1782,197.833 C289.6632,194.899 289.5992,191.877 288.9832,188.966 C288.7232,187.744 288.3692,186.539 287.9502,185.351 C287.0532,182.805 285.8562,180.343 284.6542,177.961 C283.7042,176.081 282.7162,174.215 281.6632,172.391 C280.6102,170.567 279.4882,168.778 278.3342,167.016 C276.8732,164.784 275.3392,162.516 273.5822,160.465 C272.7642,159.509 271.8982,158.601 270.9682,157.765 C268.7552,155.775 266.1712,154.209 263.3872,153.162 C260.6232,152.122 257.6712,151.595 254.7192,151.619 C251.7002,151.643 248.6932,152.245 245.8982,153.386 C244.8822,153.801 243.8962,154.285 242.9462,154.833 C241.9962,155.382 241.0832,155.994 240.2172,156.666" id="Fill-10" fill="#FEFEFE"></path>
                    <path d="M245.8208,146.4511 C248.6158,147.5921 251.6238,148.1951 254.6418,148.2191 C257.5938,148.2421 260.5468,147.7151 263.3098,146.6761 C266.0938,145.6281 268.6778,144.0621 270.8908,142.0731 C271.8208,141.2371 272.6868,140.3271 273.5058,139.3721 C275.2618,137.3211 276.7968,135.0541 278.2578,132.8211 C279.4118,131.0591 280.5328,129.2711 281.5868,127.4471 C282.6388,125.6221 283.6278,123.7571 284.5768,121.8761 C285.7788,119.4941 286.9758,117.0321 287.8738,114.4861 C288.2928,113.2991 288.6458,112.0941 288.9058,110.8701 C289.5218,107.9601 289.5868,104.9391 289.1008,102.0041 C288.6198,99.0911 287.5998,96.2711 286.1038,93.7261 C284.5738,91.1231 282.5478,88.8201 280.1618,86.9701 C279.2958,86.2981 278.3828,85.6861 277.4318,85.1381 C276.4828,84.5891 275.4968,84.1051 274.4808,83.6901 C271.6848,82.5491 268.6778,81.9471 265.6588,81.9231 C262.7068,81.8991 259.7548,82.4261 256.9918,83.4651 C254.2078,84.5131 251.6228,86.0791 249.4108,88.0681 C248.4808,88.9051 247.6138,89.8131 246.7958,90.7691 C245.0398,92.8201 243.5058,95.0881 242.0438,97.3201 C240.8898,99.0821 239.7688,100.8701 238.7158,102.6951 C237.6618,104.5191 236.6748,106.3851 235.7248,108.2651 C234.5218,110.6471 233.3258,113.1091 232.4268,115.6551 C232.0088,116.8421 231.6558,118.0471 231.3958,119.2711 C230.7788,122.1811 230.7158,125.2021 231.1998,128.1371 C231.6808,131.0501 232.7018,133.8701 234.1978,136.4151 C235.7278,139.0181 237.7538,141.3211 240.1388,143.1711 C241.0068,143.8431 241.9198,144.4551 242.8688,145.0041 C243.8188,145.5521 244.8048,146.0361 245.8208,146.4511" id="Fill-12" fill="#FEFEFE"></path>
                    <path d="M112.101,216.2143 C114.896,217.3563 117.904,217.9583 120.923,217.9833 C123.875,218.0063 126.828,217.4793 129.59,216.4403 C132.374,215.3923 134.959,213.8253 137.171,211.8363 C138.101,211.0003 138.968,210.0913 139.787,209.1353 C141.542,207.0843 143.077,204.8183 144.538,202.5853 C145.692,200.8223 146.813,199.0343 147.867,197.2103 C148.919,195.3863 149.908,193.5203 150.857,191.6403 C152.059,189.2583 153.256,186.7963 154.154,184.2493 C154.573,183.0633 154.926,181.8583 155.186,180.6343 C155.802,177.7243 155.867,174.7023 155.381,171.7683 C154.9,168.8553 153.88,166.0343 152.384,163.4893 C150.854,160.8873 148.829,158.5843 146.442,156.7343 C145.576,156.0623 144.663,155.4493 143.713,154.9013 C142.763,154.3533 141.777,153.8683 140.761,153.4543 C137.966,152.3133 134.958,151.7103 131.939,151.6863 C128.987,151.6633 126.035,152.1903 123.272,153.2293 C120.488,154.2773 117.903,155.8423 115.691,157.8323 C114.761,158.6683 113.894,159.5773 113.076,160.5333 C111.32,162.5843 109.786,164.8523 108.325,167.0833 C107.17,168.8463 106.049,170.6343 104.996,172.4583 C103.943,174.2823 102.955,176.1493 102.005,178.0283 C100.803,180.4103 99.606,182.8733 98.708,185.4193 C98.289,186.6063 97.936,187.8113 97.676,189.0343 C97.06,191.9443 96.996,194.9663 97.481,197.9013 C97.962,200.8143 98.982,203.6343 100.478,206.1793 C102.008,208.7813 104.034,211.0843 106.42,212.9353 C107.287,213.6073 108.2,214.2193 109.149,214.7673 C110.099,215.3163 111.085,215.8003 112.101,216.2143" id="Fill-14" fill="#FEFEFE"></path>
                    <path d="M0.0004,80.3129 C0.0004,77.1859 2.5354,74.6499 5.6624,74.6499 C8.7894,74.6499 11.3254,77.1859 11.3254,80.3129 C11.3254,83.4399 8.7894,85.9759 5.6624,85.9759 C2.5354,85.9759 0.0004,83.4399 0.0004,80.3129" id="Fill-16" fill="#FEFEFE"></path>
                    <g id="Group-20" transform="translate(278.000000, 11.937000)">
                        <mask id="mask-4" fill="white">
                            <use xlink:href="#path-3"></use>
                        </mask>
                        <g id="Clip-19"></g>
                        <path d="M40.813,1.7519 C38.105,0.1879 34.642,1.1159 33.078,3.8239 L0.95,59.4719 C-0.614,62.1799 0.314,65.6429 3.023,67.2069 C5.731,68.7709 9.195,67.8429 10.758,65.1339 L42.886,9.4869 C44.45,6.7789 43.522,3.3149 40.813,1.7519" id="Fill-18" fill="#FEFEFE" mask="url(#mask-4)"></path>
                    </g>
                    <path d="M31.4868,287.894 L47.4858,287.894 C52.2768,287.894 55.3728,290.636 55.3728,294.878 C55.3728,299.374 52.4978,301.954 47.4858,301.954 L31.4868,301.954 L31.4868,287.894 Z M47.0348,275.993 L31.4868,275.993 L31.4868,263.015 L47.0348,263.015 C51.4548,263.015 54.1998,265.518 54.1998,269.548 C54.1998,273.524 51.4548,275.993 47.0348,275.993 L47.0348,275.993 Z M59.8768,281.452 C64.1308,279.176 67.6338,274.56 67.6338,267.747 C67.6338,257.797 60.2258,251.113 49.1988,251.113 L19.6328,251.113 C18.9088,251.113 18.3238,251.699 18.3238,252.421 L18.3238,312.546 C18.3238,313.27 18.9088,313.855 19.6328,313.855 L50.0088,313.855 C61.4278,313.855 68.8058,306.973 68.8058,296.322 C68.8058,289.887 65.1018,284.013 59.8768,281.452 L59.8768,281.452 Z" id="Fill-21" fill="#FEFEFE"></path>
                    <path d="M103.0581,296.4975 L103.0581,302.1845 C101.2051,304.4415 97.7831,305.8295 93.9991,305.8295 C89.2291,305.8295 86.0231,303.2395 86.0231,299.3865 C86.0231,295.4775 89.2291,292.8515 93.9991,292.8515 C97.7831,292.8515 101.2051,294.2395 103.0581,296.4975 M95.7121,266.6175 C88.2611,266.6175 81.6211,269.1725 76.5131,274.0065 C76.0711,274.4265 75.9761,275.0965 76.2861,275.6215 L80.1621,282.2025 C80.3671,282.5485 80.7181,282.7825 81.1171,282.8355 C81.5151,282.8875 81.9161,282.7565 82.2041,282.4745 C85.7371,279.0245 89.6541,277.3475 94.1801,277.3475 C99.6561,277.3475 103.0581,279.9555 103.0581,284.1515 L103.0581,287.6095 C99.7871,285.1005 95.3711,283.7455 90.3041,283.7455 C82.3801,283.7455 73.8521,288.5825 73.8521,299.2055 C73.8521,309.4245 82.3291,314.9365 90.3041,314.9365 C95.2651,314.9365 99.6861,313.5165 103.0581,310.8855 L103.0581,312.5465 C103.0581,313.2695 103.6431,313.8545 104.3671,313.8545 L113.8301,313.8545 C114.5541,313.8545 115.1391,313.2695 115.1391,312.5465 L115.1391,283.7005 C115.1391,272.8435 108.0591,266.6175 95.7121,266.6175" id="Fill-23" fill="#FEFEFE"></path>
                    <path d="M148.7954,266.7074 C144.2064,266.7074 139.5944,268.6604 135.9514,272.0514 L135.9514,269.0074 C135.9514,268.2844 135.3664,267.6994 134.6434,267.6994 L125.1784,267.6994 C124.4544,267.6994 123.8694,268.2844 123.8694,269.0074 L123.8694,312.5464 C123.8694,313.2704 124.4544,313.8544 125.1784,313.8544 L134.6434,313.8544 C135.3664,313.8544 135.9514,313.2704 135.9514,312.5464 L135.9514,283.2834 C137.7524,280.7484 142.4134,278.4294 145.8204,278.4294 C146.8924,278.4294 147.7974,278.5104 148.5114,278.6684 C148.9004,278.7534 149.3044,278.6604 149.6144,278.4114 C149.9244,278.1634 150.1044,277.7874 150.1044,277.3914 L150.1044,268.0164 C150.1044,267.2924 149.5194,266.7074 148.7954,266.7074" id="Fill-25" fill="#FEFEFE"></path>
                    <path d="M165.9213,251.1127 L156.4563,251.1127 C155.7333,251.1127 155.1483,251.6987 155.1483,252.4217 L155.1483,312.5467 C155.1483,313.2697 155.7333,313.8547 156.4563,313.8547 L165.9213,313.8547 C166.6453,313.8547 167.2303,313.2697 167.2303,312.5467 L167.2303,252.4217 C167.2303,251.6987 166.6453,251.1127 165.9213,251.1127" id="Fill-27" fill="#FEFEFE"></path>
                    <path d="M197.8325,303.9369 C190.1225,303.9369 186.6105,297.0919 186.6105,290.7329 C186.6105,284.4159 190.1225,277.6179 197.8325,277.6179 C205.6035,277.6179 209.1445,284.4159 209.1445,290.7329 C209.1445,297.0919 205.6035,303.9369 197.8325,303.9369 M197.8325,266.6179 C184.1205,266.6179 174.1685,276.7589 174.1685,290.7329 C174.1685,304.7569 184.1205,314.9369 197.8325,314.9369 C211.5965,314.9369 221.5855,304.7569 221.5855,290.7329 C221.5855,276.7589 211.5965,266.6179 197.8325,266.6179" id="Fill-29" fill="#FEFEFE"></path>
                    <path d="M249.4848,303.9369 C241.7748,303.9369 238.2628,297.0919 238.2628,290.7329 C238.2628,284.4159 241.7748,277.6179 249.4848,277.6179 C257.2558,277.6179 260.7968,284.4159 260.7968,290.7329 C260.7968,297.0919 257.2558,303.9369 249.4848,303.9369 M249.4848,266.6179 C235.7728,266.6179 225.8208,276.7589 225.8208,290.7329 C225.8208,304.7569 235.7728,314.9369 249.4848,314.9369 C263.2488,314.9369 273.2388,304.7569 273.2388,290.7329 C273.2388,276.7589 263.2488,266.6179 249.4848,266.6179" id="Fill-31" fill="#FEFEFE"></path>
                    <g id="Group-35" transform="translate(280.000000, 265.937000)">
                        <mask id="mask-6" fill="white">
                            <use xlink:href="#path-5"></use>
                        </mask>
                        <g id="Clip-34"></g>
                        <path d="M26.2749,0.6806 C20.4589,0.6806 15.5659,3.0846 12.2599,5.8786 L12.2599,3.0706 C12.2599,2.3476 11.6739,1.7626 10.9519,1.7626 L1.4859,1.7626 C0.7629,1.7626 0.1779,2.3476 0.1779,3.0706 L0.1779,46.6096 C0.1779,47.3326 0.7629,47.9176 1.4859,47.9176 L10.9519,47.9176 C11.6739,47.9176 12.2599,47.3326 12.2599,46.6096 L12.2599,16.6706 C14.1289,14.2976 17.7209,11.6806 22.1289,11.6806 C27.3409,11.6806 29.5649,13.9866 29.5649,19.3856 L29.5649,46.6096 C29.5649,47.3326 30.1499,47.9176 30.8729,47.9176 L40.3379,47.9176 C41.0599,47.9176 41.6459,47.3326 41.6459,46.6096 L41.6459,15.9616 C41.6459,6.1066 36.1879,0.6806 26.2749,0.6806" id="Fill-33" fill="#FEFEFE" mask="url(#mask-6)"></path>
                    </g>
                </g>
            </g>
        </g>
    </g>
</svg>