<svg id="レイヤー_1" data-name="レイヤー 1" xmlns="http://www.w3.org/2000/svg" viewBox="0 0 1001 967"><defs><style>.cls-1{fill:#22252c;}.cls-2{fill:#da3b2b;}</style></defs><title>logo_v</title><path class="cls-1" d="M195.74,863.2c13.09-7,23.87-21.2,23.87-42.16,0-30.61-22.79-51.17-56.71-51.17h-91a4,4,0,0,0-4,4v185a4,4,0,0,0,4,4h93.45c35.13,0,57.82-21.17,57.82-53.94C223.21,889.14,211.82,871.08,195.74,863.2Zm-39.5-16.79H108.41V806.48h47.83c13.59,0,22,7.7,22,20.1C178.28,838.81,169.83,846.4,156.24,846.4ZM108.41,883h49.22c14.74,0,24.26,8.44,24.26,21.49,0,13.83-8.84,21.76-24.26,21.76H108.41Z"/><path class="cls-1" d="M306,817.56c-22.92,0-43.35,7.86-59.06,22.73a4,4,0,0,0-.7,5l11.92,20.24a4,4,0,0,0,6.28.83c10.87-10.61,22.92-15.77,36.84-15.77,16.85,0,27.31,8,27.31,20.93v10.64c-10.06-7.72-23.64-11.89-39.23-11.89-24.38,0-50.61,14.88-50.61,47.56,0,31.43,26.08,48.39,50.61,48.39,15.26,0,28.86-4.37,39.23-12.47v5.11a4,4,0,0,0,4,4h29.11a4,4,0,0,0,4-4V870.12C365.74,836.72,344,817.56,306,817.56Zm22.6,91.92V927c-5.7,6.95-16.23,11.21-27.87,11.21-14.68,0-24.54-8-24.54-19.82,0-12,9.86-20.1,24.54-20.1C312.35,898.27,322.88,902.53,328.58,909.48Z"/><path class="cls-1" d="M469.28,817.84c-14.12,0-28.3,6-39.51,16.44v-9.36a4,4,0,0,0-4-4H396.62a4,4,0,0,0-4,4V958.85a4,4,0,0,0,4,4h29.12a4,4,0,0,0,4-4v-90c5.54-7.8,19.88-14.93,30.36-14.93a39.19,39.19,0,0,1,8.28.74,4,4,0,0,0,4.9-3.93V821.86A4,4,0,0,0,469.28,817.84Z"/><path class="cls-1" d="M492.84,769.87H522a4,4,0,0,1,4,4v185a4,4,0,0,1-4,4H492.84a4,4,0,0,1-4-4v-185a4,4,0,0,1,4-4Z"/><path class="cls-1" d="M620.12,817.56c-42.18,0-72.79,31.2-72.79,74.18,0,43.14,30.61,74.46,72.79,74.46,42.34,0,73.07-31.31,73.07-74.46C693.19,848.76,662.46,817.56,620.12,817.56Zm0,114.8c-23.72,0-34.52-21.06-34.52-40.62s10.8-40.34,34.52-40.34c23.91,0,34.8,20.91,34.8,40.34S644,932.37,620.12,932.37Z"/><path class="cls-1" d="M779,817.56c-42.18,0-72.79,31.2-72.79,74.18,0,43.14,30.61,74.46,72.79,74.46,42.34,0,73.07-31.31,73.07-74.46C852.09,848.76,821.36,817.56,779,817.56Zm0,114.8c-23.72,0-34.52-21.06-34.52-40.62S755.3,851.4,779,851.4c23.91,0,34.8,20.91,34.8,40.34S802.93,932.37,779,932.37Z"/><path class="cls-1" d="M953.72,817.56a67.33,67.33,0,0,0-43.11,16v-8.64a4,4,0,0,0-4-4H877.46a4,4,0,0,0-4,4V958.85a4,4,0,0,0,4,4h29.12a4,4,0,0,0,4-4v-92.1c5.75-7.3,16.8-15.35,30.36-15.35,16,0,22.87,7.09,22.87,23.7v83.75a4,4,0,0,0,4,4H997a4,4,0,0,0,4-4V864.57C1001,834.26,984.21,817.56,953.72,817.56Z"/><path class="cls-2" d="M319.34,229.71a73.84,73.84,0,0,0-35.85-49.39c-10.57-6-22.31-8.61-34.18-10.72a325.45,325.45,0,0,0-38.4-4.37c-5.51-.31-11-.43-16.54-.51-5.52.08-11,.2-16.54.51a325.45,325.45,0,0,0-38.4,4.37c-11.87,2.11-23.62,4.7-34.18,10.72a73.76,73.76,0,0,0,0,128.26c10.57,6,22.31,8.61,34.18,10.72a325.45,325.45,0,0,0,38.4,4.37c5.51.31,11,.43,16.54.51,5.52-.08,11-.2,16.54-.51a325.45,325.45,0,0,0,38.4-4.37c11.87-2.11,23.62-4.7,34.18-10.72a73.86,73.86,0,0,0,35.85-78.87Z"/><path class="cls-2" d="M731.15,444.05a73.84,73.84,0,0,0-35.85-49.39c-10.57-6-22.31-8.61-34.18-10.72a325.45,325.45,0,0,0-38.4-4.37c-5.51-.31-11-.43-16.54-.51-5.52.08-11,.2-16.54.51a325.45,325.45,0,0,0-38.4,4.37c-11.87,2.11-23.62,4.7-34.18,10.72a73.76,73.76,0,0,0,0,128.26c10.57,6,22.31,8.61,34.18,10.72a325.45,325.45,0,0,0,38.4,4.37c5.51.31,11,.43,16.54.51,5.52-.08,11-.2,16.54-.51a325.45,325.45,0,0,0,38.4-4.37c11.87-2.11,23.62-4.7,34.18-10.72a73.86,73.86,0,0,0,35.85-78.87Z"/><path class="cls-2" d="M360.44,235.46a73.84,73.84,0,0,0,60.7-6.35c10.49-6.15,18.61-15,26.38-24.25a325.45,325.45,0,0,0,23-31.07c3-4.62,5.88-9.33,8.71-14.07s5.34-9.65,7.83-14.58a325.45,325.45,0,0,0,15.41-35.44c4.11-11.34,7.73-22.8,7.81-35A73.76,73.76,0,0,0,399.18,10.61c-10.49,6.15-18.61,15-26.38,24.25a325.45,325.45,0,0,0-23,31.07c-3,4.62-5.88,9.33-8.71,14.07s-5.34,9.65-7.83,14.58A325.45,325.45,0,0,0,317.87,130c-4.11,11.34-7.73,22.8-7.81,35a73.86,73.86,0,0,0,50.38,70.48Z"/><path class="cls-2" d="M338.68,265.14a73.86,73.86,0,0,0-26.9,73.52A88.86,88.86,0,0,0,315,349.78a194.94,194.94,0,0,0,10.14,22.73c2.92,5.78,6,11.52,9.2,17.14s6.69,11.11,10.24,16.53a194.94,194.94,0,0,0,14.62,20.15,88.85,88.85,0,0,0,8,8.31A73.79,73.79,0,0,0,488.7,364.5a88.85,88.85,0,0,0-3.17-11.12,194.94,194.94,0,0,0-10.14-22.73c-2.92-5.78-6-11.52-9.2-17.14S459.49,302.4,455.94,297a194.94,194.94,0,0,0-14.62-20.15,88.86,88.86,0,0,0-8-8.31,73.86,73.86,0,0,0-94.6-3.38Z"/><path class="cls-2" d="M750.51,479.33a73.86,73.86,0,0,0-26.9,73.52A88.85,88.85,0,0,0,726.78,564a194.94,194.94,0,0,0,10.14,22.73c2.92,5.78,6,11.52,9.2,17.14s6.69,11.11,10.24,16.53A194.94,194.94,0,0,0,771,640.53a88.86,88.86,0,0,0,8,8.31,73.79,73.79,0,0,0,121.49-70.14,88.85,88.85,0,0,0-3.17-11.12,194.94,194.94,0,0,0-10.14-22.73c-2.92-5.78-6-11.52-9.2-17.14s-6.69-11.11-10.24-16.53A194.94,194.94,0,0,0,853.15,491a88.85,88.85,0,0,0-8-8.31,73.86,73.86,0,0,0-94.6-3.38Z"/><path class="cls-2" d="M767.75,447.9a73.86,73.86,0,0,0,77.12-13.47,88.86,88.86,0,0,0,8-8.31A194.94,194.94,0,0,0,867.53,406c3.55-5.42,7-10.92,10.24-16.53s6.28-11.35,9.2-17.14a194.94,194.94,0,0,0,10.14-22.73,88.85,88.85,0,0,0,3.17-11.12,73.79,73.79,0,0,0-121.49-70.14,88.85,88.85,0,0,0-8,8.31,194.94,194.94,0,0,0-14.62,20.15c-3.55,5.42-7,10.92-10.24,16.53s-6.28,11.35-9.2,17.14a194.94,194.94,0,0,0-10.14,22.73,88.85,88.85,0,0,0-3.17,11.12,73.86,73.86,0,0,0,44.37,83.61Z"/><path class="cls-2" d="M356.39,662.51A73.86,73.86,0,0,0,433.52,649a88.86,88.86,0,0,0,8-8.31,194.94,194.94,0,0,0,14.62-20.15c3.55-5.42,7-10.92,10.24-16.53s6.28-11.35,9.2-17.14a194.94,194.94,0,0,0,10.14-22.73,88.86,88.86,0,0,0,3.17-11.12,73.79,73.79,0,0,0-121.49-70.14,88.85,88.85,0,0,0-8,8.31,194.94,194.94,0,0,0-14.62,20.15c-3.55,5.42-7,10.92-10.24,16.53s-6.28,11.35-9.2,17.14a194.94,194.94,0,0,0-10.14,22.73A88.85,88.85,0,0,0,312,578.9a73.86,73.86,0,0,0,44.37,83.61Z"/><circle class="cls-2" cx="23.47" cy="244.45" r="22.92"/><path class="cls-2" d="M992.29,39.5a17.42,17.42,0,0,0-23.8,6.38L869.66,217.06a17.42,17.42,0,1,0,30.17,17.42L998.66,63.29A17.42,17.42,0,0,0,992.29,39.5Z"/></svg>