<svg id="レイヤー_1" data-name="レイヤー 1" xmlns="http://www.w3.org/2000/svg" viewBox="0 0 1001 668"><defs><style>.cls-1{fill:#da3b2b;}</style></defs><title>logo_mark</title><path class="cls-1" d="M319.11,229.6a73.81,73.81,0,0,0-35.84-49.37c-10.56-6-22.3-8.61-34.17-10.71a325.3,325.3,0,0,0-38.38-4.37c-5.51-.31-11-.43-16.53-.51-5.52.08-11,.2-16.53.51a325.3,325.3,0,0,0-38.38,4.37c-11.87,2.11-23.6,4.7-34.17,10.71a73.72,73.72,0,0,0,0,128.2c10.56,6,22.3,8.61,34.17,10.71a325.3,325.3,0,0,0,38.38,4.37c5.51.31,11,.43,16.53.51,5.52-.08,11-.2,16.53-.51a325.3,325.3,0,0,0,38.38-4.37c11.87-2.11,23.6-4.7,34.17-10.71a73.82,73.82,0,0,0,35.84-78.83Z"/><path class="cls-1" d="M730.74,443.85a73.81,73.81,0,0,0-35.84-49.37c-10.56-6-22.3-8.61-34.17-10.71a325.3,325.3,0,0,0-38.38-4.37c-5.51-.31-11-.43-16.53-.51-5.52.08-11,.2-16.53.51a325.3,325.3,0,0,0-38.38,4.37c-11.87,2.11-23.6,4.7-34.17,10.71a73.72,73.72,0,0,0,0,128.2c10.56,6,22.3,8.61,34.17,10.71a325.3,325.3,0,0,0,38.38,4.37c5.51.31,11,.43,16.53.51,5.52-.08,11-.2,16.53-.51a325.3,325.3,0,0,0,38.38-4.37c11.87-2.11,23.6-4.7,34.17-10.71a73.82,73.82,0,0,0,35.84-78.83Z"/><path class="cls-1" d="M360.2,235.35A73.81,73.81,0,0,0,420.87,229c10.49-6.14,18.6-15,26.36-24.23a325.3,325.3,0,0,0,23-31.05c3-4.62,5.88-9.32,8.71-14.06s5.34-9.64,7.82-14.57a325.3,325.3,0,0,0,15.4-35.42c4.11-11.33,7.73-22.79,7.81-34.95a73.72,73.72,0,0,0-111-64.1c-10.49,6.14-18.6,15-26.36,24.23a325.3,325.3,0,0,0-23,31.05c-3,4.62-5.88,9.32-8.71,14.06s-5.34,9.64-7.82,14.57a325.3,325.3,0,0,0-15.4,35.42c-4.11,11.33-7.73,22.79-7.81,34.95a73.82,73.82,0,0,0,50.35,70.45Z"/><path class="cls-1" d="M338.45,265a73.83,73.83,0,0,0-26.89,73.49,88.81,88.81,0,0,0,3.17,11.12,194.85,194.85,0,0,0,10.14,22.72c2.92,5.78,6,11.52,9.19,17.13s6.69,11.11,10.24,16.53a194.85,194.85,0,0,0,14.61,20.14,88.81,88.81,0,0,0,8,8.31A73.76,73.76,0,0,0,488.4,364.33a88.81,88.81,0,0,0-3.17-11.12,194.85,194.85,0,0,0-10.14-22.72c-2.92-5.78-6-11.52-9.19-17.13s-6.69-11.11-10.24-16.53A194.85,194.85,0,0,0,441,276.7a88.81,88.81,0,0,0-8-8.31A73.82,73.82,0,0,0,338.45,265Z"/><path class="cls-1" d="M750.09,479.11A73.83,73.83,0,0,0,723.2,552.6a88.81,88.81,0,0,0,3.17,11.12,194.85,194.85,0,0,0,10.14,22.72c2.92,5.78,6,11.52,9.19,17.13s6.69,11.11,10.24,16.53a194.85,194.85,0,0,0,14.61,20.14,88.81,88.81,0,0,0,8,8.31A73.76,73.76,0,0,0,900,578.43a88.81,88.81,0,0,0-3.17-11.12,194.85,194.85,0,0,0-10.14-22.72c-2.92-5.78-6-11.52-9.19-17.13s-6.69-11.11-10.24-16.53a194.85,194.85,0,0,0-14.61-20.14,88.81,88.81,0,0,0-8-8.31,73.82,73.82,0,0,0-94.55-3.38Z"/><path class="cls-1" d="M767.32,447.7a73.83,73.83,0,0,0,77.09-13.46,88.81,88.81,0,0,0,8-8.31,194.85,194.85,0,0,0,14.61-20.14c3.55-5.42,7-10.92,10.24-16.53s6.28-11.35,9.19-17.13a194.85,194.85,0,0,0,10.14-22.72,88.81,88.81,0,0,0,3.17-11.12,73.76,73.76,0,0,0-121.44-70.11,88.81,88.81,0,0,0-8,8.31,194.85,194.85,0,0,0-14.61,20.14c-3.55,5.42-7,10.92-10.24,16.53s-6.28,11.35-9.19,17.13A194.85,194.85,0,0,0,726.14,353,88.81,88.81,0,0,0,723,364.12a73.82,73.82,0,0,0,44.35,83.57Z"/><path class="cls-1" d="M356.16,662.21a73.83,73.83,0,0,0,77.09-13.46,88.81,88.81,0,0,0,8-8.31,194.85,194.85,0,0,0,14.61-20.14c3.55-5.42,7-10.92,10.24-16.53s6.28-11.35,9.19-17.13a194.85,194.85,0,0,0,10.14-22.72,88.81,88.81,0,0,0,3.17-11.12,73.76,73.76,0,0,0-121.44-70.11,88.81,88.81,0,0,0-8,8.31,194.85,194.85,0,0,0-14.61,20.14c-3.55,5.42-7,10.92-10.24,16.53S328,539,325.11,544.79A194.85,194.85,0,0,0,315,567.52a88.81,88.81,0,0,0-3.17,11.12,73.82,73.82,0,0,0,44.35,83.57Z"/><circle class="cls-1" cx="23.38" cy="244.33" r="22.91"/><path class="cls-1" d="M991.76,39.48A17.41,17.41,0,0,0,968,45.85L869.19,217a17.41,17.41,0,1,0,30.16,17.41L998.13,63.26A17.41,17.41,0,0,0,991.76,39.48Z"/></svg>