<svg id="レイヤー_1" data-name="レイヤー 1" xmlns="http://www.w3.org/2000/svg" viewBox="0 0 1001 218"><defs><style>.cls-1{fill:#22252c;}.cls-2{fill:#da3b2b;}</style></defs><title>logo_mark_type</title><path class="cls-1" d="M436.16,145c9.18-4.91,16.74-14.87,16.74-29.57,0-21.47-16-35.89-39.78-35.89h-63.8a2.82,2.82,0,0,0-2.82,2.82V212.07a2.82,2.82,0,0,0,2.82,2.82h65.55c24.64,0,40.56-14.85,40.56-37.83C455.42,163.18,447.43,150.5,436.16,145ZM408.45,133.2H374.9v-28h33.55c9.54,0,15.46,5.4,15.46,14.1S418,133.2,408.45,133.2ZM374.9,158.88h34.52c10.34,0,17,5.92,17,15.07,0,9.7-6.2,15.27-17,15.27H374.9Z"/><path class="cls-1" d="M513.48,113c-16.08,0-30.41,5.51-41.43,15.94a2.83,2.83,0,0,0-.49,3.48l8.36,14.2a2.82,2.82,0,0,0,4.41.59c7.62-7.44,16.08-11.06,25.84-11.06,11.82,0,19.16,5.63,19.16,14.68v7.46c-7.06-5.42-16.59-8.34-27.52-8.34-17.1,0-35.5,10.44-35.5,33.36,0,22,18.29,33.94,35.5,33.94,10.71,0,20.24-3.07,27.52-8.74v3.59a2.82,2.82,0,0,0,2.82,2.82h20.42a2.82,2.82,0,0,0,2.82-2.82V149.83C555.4,126.4,540.12,113,513.48,113Zm15.85,64.47v12.27c-4,4.87-11.38,7.87-19.55,7.87-10.29,0-17.21-5.59-17.21-13.9s6.92-14.1,17.21-14.1C518,169.57,525.34,172.57,529.33,177.44Z"/><path class="cls-1" d="M628,113.16c-9.9,0-19.85,4.21-27.71,11.53v-6.57a2.82,2.82,0,0,0-2.82-2.82H577.06a2.82,2.82,0,0,0-2.82,2.82v93.95a2.82,2.82,0,0,0,2.82,2.82h20.42a2.82,2.82,0,0,0,2.82-2.82V148.93c3.89-5.47,13.94-10.48,21.3-10.48a27.49,27.49,0,0,1,5.81.52,2.82,2.82,0,0,0,3.44-2.76V116A2.82,2.82,0,0,0,628,113.16Z"/><rect class="cls-1" x="641.73" y="79.51" width="26.07" height="135.38" rx="2.82" ry="2.82"/><path class="cls-1" d="M733.84,113c-29.59,0-51.06,21.88-51.06,52s21.47,52.23,51.06,52.23,51.26-22,51.26-52.23S763.54,113,733.84,113Zm0,80.53c-16.64,0-24.21-14.77-24.21-28.49s7.58-28.3,24.21-28.3,24.41,14.67,24.41,28.3S750.61,193.49,733.84,193.49Z"/><path class="cls-1" d="M845.29,113c-29.59,0-51.06,21.88-51.06,52s21.47,52.23,51.06,52.23,51.26-22,51.26-52.23S875,113,845.29,113Zm0,80.53c-16.64,0-24.21-14.77-24.21-28.49s7.58-28.3,24.21-28.3S869.7,151.37,869.7,165,862.06,193.49,845.29,193.49Z"/><path class="cls-1" d="M967.83,113a47.23,47.23,0,0,0-30.24,11.22v-6.06a2.82,2.82,0,0,0-2.82-2.82H914.34a2.82,2.82,0,0,0-2.82,2.82v93.95a2.82,2.82,0,0,0,2.82,2.82h20.42a2.82,2.82,0,0,0,2.82-2.82v-64.6c4-5.12,11.79-10.77,21.3-10.77,11.25,0,16,5,16,16.63v58.74a2.82,2.82,0,0,0,2.82,2.82h20.42a2.82,2.82,0,0,0,2.82-2.82V145.94C1001,124.68,989.22,113,967.83,113Z"/><path class="cls-2" d="M103.39,74.89a24,24,0,0,0-11.64-16,34,34,0,0,0-11.1-3.48,105.7,105.7,0,0,0-12.47-1.42c-1.79-.1-3.58-.14-5.37-.17s-3.58.06-5.37.17A105.7,105.7,0,0,0,45,55.37a34,34,0,0,0-11.1,3.48,24,24,0,0,0,0,41.66A34,34,0,0,0,45,104a105.7,105.7,0,0,0,12.47,1.42c1.79.1,3.58.14,5.37.17s3.58-.06,5.37-.17A105.7,105.7,0,0,0,80.64,104a34,34,0,0,0,11.1-3.48,24,24,0,0,0,11.64-25.62Z"/><path class="cls-2" d="M237.14,144.51a24,24,0,0,0-11.64-16,34,34,0,0,0-11.1-3.48,105.7,105.7,0,0,0-12.47-1.42c-1.79-.1-3.58-.14-5.37-.17s-3.58.06-5.37.17A105.7,105.7,0,0,0,178.71,125a34,34,0,0,0-11.1,3.48,24,24,0,0,0,0,41.66,34,34,0,0,0,11.1,3.48A105.7,105.7,0,0,0,191.18,175c1.79.1,3.58.14,5.37.17s3.58-.06,5.37-.17a105.7,105.7,0,0,0,12.47-1.42,34,34,0,0,0,11.1-3.48,24,24,0,0,0,11.64-25.62Z"/><path class="cls-2" d="M116.74,76.76a24,24,0,0,0,19.71-2.06A34,34,0,0,0,145,66.82a105.7,105.7,0,0,0,7.47-10.09c1-1.5,1.91-3,2.83-4.57S157,49,157.86,47.43a105.7,105.7,0,0,0,5-11.51,34,34,0,0,0,2.54-11.36A24,24,0,0,0,129.32,3.73a34,34,0,0,0-8.57,7.87,105.7,105.7,0,0,0-7.47,10.09c-1,1.5-1.91,3-2.83,4.57s-1.74,3.13-2.54,4.73a105.7,105.7,0,0,0-5,11.51,34,34,0,0,0-2.54,11.36,24,24,0,0,0,16.36,22.89Z"/><path class="cls-2" d="M109.67,86.4a24,24,0,0,0-8.74,23.88,28.86,28.86,0,0,0,1,3.61,63.31,63.31,0,0,0,3.29,7.38c.95,1.88,1.94,3.74,3,5.57s2.17,3.61,3.33,5.37a63.31,63.31,0,0,0,4.75,6.54,28.86,28.86,0,0,0,2.61,2.7,24,24,0,0,0,39.46-22.78,28.86,28.86,0,0,0-1-3.61,63.31,63.31,0,0,0-3.29-7.38c-.95-1.88-1.94-3.74-3-5.57s-2.17-3.61-3.33-5.37A63.31,63.31,0,0,0,143,90.2a28.86,28.86,0,0,0-2.61-2.7,24,24,0,0,0-30.72-1.1Z"/><path class="cls-2" d="M243.43,156a24,24,0,0,0-8.74,23.88,28.86,28.86,0,0,0,1,3.61,63.31,63.31,0,0,0,3.29,7.38c.95,1.88,1.94,3.74,3,5.57s2.17,3.61,3.33,5.37a63.31,63.31,0,0,0,4.75,6.54,28.86,28.86,0,0,0,2.61,2.7,24,24,0,0,0,39.46-22.78,28.86,28.86,0,0,0-1-3.61,63.31,63.31,0,0,0-3.29-7.38c-.95-1.88-1.94-3.74-3-5.57s-2.17-3.61-3.33-5.37a63.31,63.31,0,0,0-4.75-6.54,28.86,28.86,0,0,0-2.61-2.7,24,24,0,0,0-30.72-1.1Z"/><path class="cls-2" d="M249,145.76a24,24,0,0,0,25-4.37,28.86,28.86,0,0,0,2.61-2.7,63.31,63.31,0,0,0,4.75-6.54c1.15-1.76,2.27-3.55,3.33-5.37s2-3.69,3-5.57a63.31,63.31,0,0,0,3.29-7.38,28.86,28.86,0,0,0,1-3.61,24,24,0,0,0-39.46-22.78,28.86,28.86,0,0,0-2.61,2.7,63.31,63.31,0,0,0-4.75,6.54c-1.15,1.76-2.27,3.55-3.33,5.37s-2,3.69-3,5.57a63.31,63.31,0,0,0-3.29,7.38,28.86,28.86,0,0,0-1,3.61A24,24,0,0,0,249,145.76Z"/><path class="cls-2" d="M115.42,215.46a24,24,0,0,0,25-4.37,28.86,28.86,0,0,0,2.61-2.7,63.31,63.31,0,0,0,4.75-6.54c1.15-1.76,2.27-3.55,3.33-5.37s2-3.69,3-5.57a63.31,63.31,0,0,0,3.29-7.38,28.86,28.86,0,0,0,1-3.61A24,24,0,0,0,119,157.13a28.86,28.86,0,0,0-2.61,2.7,63.31,63.31,0,0,0-4.75,6.54c-1.15,1.76-2.27,3.55-3.33,5.37s-2,3.69-3,5.57a63.31,63.31,0,0,0-3.29,7.38,28.86,28.86,0,0,0-1,3.61,24,24,0,0,0,14.41,27.16Z"/><circle class="cls-2" cx="7.29" cy="79.68" r="7.44"/><path class="cls-2" d="M322,13.12a5.66,5.66,0,0,0-7.73,2.07l-32.1,55.6a5.66,5.66,0,1,0,9.8,5.66L324,20.84A5.66,5.66,0,0,0,322,13.12Z"/></svg>