<?xml version="1.0" standalone="no"?><!-- Generator: Gravit.io --><svg xmlns="http://www.w3.org/2000/svg" xmlns:xlink="http://www.w3.org/1999/xlink" style="isolation:isolate" viewBox="0 0 1001 668" width="1001" height="668"><defs><clipPath id="_clipPath_7txBM8iAYsZxPT7HC3GXU04hGrcybv8M"><rect width="1001" height="668"/></clipPath></defs><g clip-path="url(#_clipPath_7txBM8iAYsZxPT7HC3GXU04hGrcybv8M)"><g><path d=" M 516.433 120.339 C 514.312 109.976 507.821 101.034 498.624 95.807 C 493.377 92.826 487.544 91.529 481.645 90.485 C 475.337 89.384 468.969 88.659 462.574 88.314 C 459.836 88.16 457.108 88.1 454.36 88.06 C 451.618 88.1 448.895 88.16 446.147 88.314 C 439.752 88.659 433.384 89.384 427.076 90.485 C 421.177 91.534 415.349 92.821 410.096 95.807 C 398.637 102.317 391.558 114.48 391.558 127.659 C 391.558 140.838 398.637 153.001 410.096 159.51 C 415.344 162.491 421.177 163.788 427.076 164.832 C 433.384 165.933 439.752 166.658 446.147 167.003 C 448.885 167.157 451.613 167.217 454.36 167.257 C 457.103 167.217 459.826 167.157 462.574 167.003 C 468.969 166.658 475.337 165.933 481.645 164.832 C 487.544 163.783 493.372 162.496 498.624 159.51 C 512.4 151.672 519.583 135.872 516.433 120.339 Z " fill="rgb(255,255,255)"/><path d=" M 720.973 226.8 C 718.852 216.438 712.36 207.495 703.164 202.268 C 697.917 199.287 692.083 197.99 686.185 196.947 C 679.877 195.846 673.508 195.121 667.114 194.775 C 664.376 194.621 661.648 194.561 658.9 194.522 C 656.157 194.561 653.434 194.621 650.686 194.775 C 644.292 195.121 637.924 195.846 631.615 196.947 C 625.717 197.995 619.888 199.282 614.636 202.268 C 603.177 208.778 596.098 220.941 596.098 234.12 C 596.098 247.299 603.177 259.462 614.636 265.971 C 619.883 268.953 625.717 270.25 631.615 271.293 C 637.924 272.394 644.292 273.119 650.686 273.465 C 653.424 273.619 656.152 273.678 658.9 273.718 C 661.643 273.678 664.366 273.619 667.114 273.465 C 673.508 273.119 679.877 272.394 686.185 271.293 C 692.083 270.245 697.912 268.958 703.164 265.971 C 716.94 258.133 724.123 242.334 720.973 226.8 L 720.973 226.8 Z " fill="rgb(255,255,255)"/><path d=" M 536.851 123.196 C 546.885 126.541 557.874 125.391 566.998 120.041 C 572.211 116.99 576.241 112.588 580.097 108.001 C 584.208 103.089 588.025 97.937 591.525 92.572 C 593.016 90.277 594.447 87.941 595.853 85.586 C 597.26 83.231 598.507 80.796 599.739 78.346 C 602.636 72.636 605.191 66.759 607.391 60.746 C 609.434 55.116 611.232 49.421 611.272 43.379 C 611.362 30.204 604.37 17.996 592.96 11.408 C 581.551 4.819 567.482 4.865 556.116 11.528 C 550.904 14.579 546.874 18.981 543.018 23.568 C 538.906 28.48 535.089 33.632 531.589 38.996 C 530.098 41.292 528.667 43.628 527.261 45.983 C 525.855 48.338 524.607 50.773 523.375 53.223 C 520.478 58.933 517.923 64.81 515.723 70.823 C 513.681 76.453 511.882 82.147 511.842 88.19 C 511.743 104.038 521.834 118.158 536.861 123.196 L 536.851 123.196 Z " fill="rgb(255,255,255)"/><path d=" M 526.044 137.93 C 514.974 146.546 509.788 160.721 512.682 174.447 C 513.086 176.321 513.612 178.167 514.257 179.972 C 515.694 183.839 517.377 187.61 519.296 191.262 C 520.747 194.134 522.277 196.986 523.862 199.774 C 525.447 202.562 527.186 205.295 528.95 207.988 C 531.155 211.475 533.579 214.818 536.21 217.995 C 537.444 219.456 538.772 220.836 540.185 222.125 C 551.984 232.737 569.271 234.552 583.016 226.62 C 596.761 218.688 603.84 202.812 600.554 187.287 C 600.149 185.413 599.623 183.567 598.979 181.761 C 597.541 177.895 595.859 174.124 593.94 170.472 C 592.489 167.6 590.959 164.747 589.374 161.96 C 587.789 159.172 586.049 156.439 584.285 153.746 C 582.073 150.26 579.64 146.919 577.001 143.743 C 575.767 142.282 574.439 140.903 573.026 139.614 C 559.83 127.772 540.053 127.063 526.044 137.93 Z " fill="rgb(255,255,255)"/><path d=" M 730.588 244.321 C 719.519 252.938 714.333 267.113 717.227 280.839 C 717.631 282.713 718.157 284.558 718.802 286.364 C 720.239 290.231 721.922 294.002 723.84 297.654 C 725.291 300.526 726.822 303.378 728.407 306.166 C 729.992 308.953 731.731 311.686 733.495 314.379 C 735.699 317.867 738.124 321.209 740.755 324.387 C 741.989 325.848 743.317 327.227 744.73 328.516 C 756.531 339.113 773.809 340.917 787.544 332.987 C 801.279 325.057 808.356 309.192 805.079 293.674 C 804.674 291.799 804.148 289.954 803.504 288.148 C 802.066 284.281 800.383 280.51 798.465 276.858 C 797.014 273.986 795.484 271.134 793.898 268.346 C 792.313 265.559 790.574 262.826 788.81 260.133 C 786.606 256.646 784.181 253.303 781.55 250.125 C 780.316 248.664 778.988 247.285 777.575 245.996 C 764.379 234.155 744.602 233.448 730.593 244.316 L 730.588 244.321 Z " fill="rgb(255,255,255)"/><path d=" M 739.15 228.714 C 752.147 233.991 767.016 231.395 777.456 222.025 C 778.869 220.736 780.197 219.357 781.431 217.896 C 784.062 214.718 786.487 211.376 788.691 207.888 C 790.455 205.195 792.169 202.462 793.779 199.675 C 795.389 196.887 796.9 194.035 798.346 191.163 C 800.264 187.511 801.947 183.74 803.384 179.873 C 804.029 178.067 804.555 176.222 804.96 174.348 C 808.231 158.832 801.154 142.973 787.421 135.045 C 773.689 127.117 756.416 128.919 744.616 139.51 C 743.203 140.799 741.875 142.178 740.641 143.639 C 738.01 146.817 735.585 150.159 733.381 153.647 C 731.617 156.34 729.902 159.073 728.293 161.86 C 726.683 164.648 725.172 167.5 723.726 170.372 C 721.808 174.023 720.125 177.792 718.687 181.657 C 718.048 183.463 717.527 185.309 717.127 187.182 C 713.472 204.531 722.748 222.011 739.165 228.709 L 739.15 228.714 Z " fill="rgb(255,255,255)"/><path d=" M 534.844 335.304 C 547.841 340.582 562.71 337.985 573.15 328.616 C 574.563 327.327 575.891 325.948 577.125 324.486 C 579.756 321.309 582.181 317.966 584.385 314.479 C 586.149 311.786 587.863 309.053 589.473 306.265 C 591.083 303.477 592.594 300.625 594.04 297.753 C 595.958 294.101 597.641 290.33 599.078 286.463 C 599.723 284.658 600.249 282.812 600.653 280.938 C 603.924 265.423 596.847 249.563 583.115 241.636 C 569.383 233.708 552.11 235.509 540.31 246.1 C 538.896 247.389 537.569 248.768 536.334 250.229 C 533.704 253.407 531.279 256.75 529.075 260.237 C 527.311 262.93 525.596 265.663 523.986 268.451 C 522.376 271.238 520.851 274.081 519.415 276.958 C 517.501 280.612 515.823 284.384 514.391 288.252 C 513.747 290.058 513.22 291.904 512.816 293.778 C 509.161 311.127 518.437 328.607 534.854 335.304 L 534.844 335.304 Z " fill="rgb(255,255,255)"/><circle vector-effect="non-scaling-stroke" cx="369.48464149897137" cy="127.65860983319459" r="11.384022376870234" fill="rgb(255,255,255)"/><path d=" M 850.674 25.868 C 846.54 23.487 841.257 24.903 838.868 29.034 L 789.769 114.078 C 788.224 116.755 788.224 120.054 789.77 122.73 C 791.316 125.407 794.172 127.056 797.263 127.056 C 800.354 127.056 803.21 125.406 804.756 122.729 L 853.84 37.685 C 856.228 33.547 854.811 28.258 850.674 25.868 L 850.674 25.868 Z " fill="rgb(255,255,255)"/></g><g><path d=" M 193.433 436.841 C 191.312 426.478 184.821 417.536 175.624 412.309 C 170.377 409.328 164.544 408.031 158.645 406.987 C 152.337 405.886 145.969 405.161 139.574 404.816 C 136.836 404.662 134.108 404.602 131.36 404.562 C 128.618 404.602 125.895 404.662 123.147 404.816 C 116.752 405.161 110.384 405.886 104.076 406.987 C 98.177 408.036 92.349 409.323 87.096 412.309 C 75.637 418.818 68.558 430.982 68.558 444.161 C 68.558 457.339 75.637 469.503 87.096 476.012 C 92.344 478.993 98.177 480.29 104.076 481.334 C 110.384 482.435 116.752 483.16 123.147 483.505 C 125.885 483.659 128.613 483.719 131.36 483.759 C 134.103 483.719 136.826 483.659 139.574 483.505 C 145.969 483.16 152.337 482.435 158.645 481.334 C 164.544 480.285 170.372 478.998 175.624 476.012 C 189.4 468.174 196.583 452.374 193.433 436.841 Z " fill="rgb(255,255,255)"/><path d=" M 397.973 543.302 C 395.852 532.94 389.36 523.997 380.164 518.77 C 374.917 515.789 369.083 514.492 363.185 513.449 C 356.877 512.348 350.508 511.623 344.114 511.277 C 341.376 511.123 338.648 511.063 335.9 511.024 C 333.157 511.063 330.434 511.123 327.686 511.277 C 321.292 511.623 314.924 512.348 308.615 513.449 C 302.717 514.497 296.888 515.784 291.636 518.77 C 280.177 525.28 273.098 537.443 273.098 550.622 C 273.098 563.801 280.177 575.964 291.636 582.473 C 296.883 585.455 302.717 586.752 308.615 587.795 C 314.924 588.896 321.292 589.621 327.686 589.966 C 330.424 590.121 333.152 590.18 335.9 590.22 C 338.643 590.18 341.366 590.121 344.114 589.966 C 350.508 589.621 356.877 588.896 363.185 587.795 C 369.083 586.747 374.912 585.46 380.164 582.473 C 393.94 574.635 401.123 558.836 397.973 543.302 L 397.973 543.302 Z " fill="rgb(255,255,255)"/><path d=" M 213.851 439.698 C 223.885 443.043 234.874 441.892 243.998 436.543 C 249.211 433.492 253.241 429.09 257.097 424.503 C 261.208 419.591 265.025 414.439 268.525 409.074 C 270.016 406.779 271.447 404.443 272.853 402.088 C 274.259 399.733 275.507 397.298 276.739 394.848 C 279.636 389.138 282.191 383.261 284.391 377.248 C 286.434 371.618 288.232 365.923 288.272 359.881 C 288.362 346.706 281.37 334.498 269.96 327.909 C 258.551 321.321 244.482 321.367 233.116 328.03 C 227.904 331.081 223.874 335.483 220.018 340.07 C 215.906 344.981 212.089 350.134 208.589 355.498 C 207.098 357.794 205.667 360.129 204.261 362.485 C 202.855 364.84 201.607 367.275 200.375 369.725 C 197.478 375.435 194.923 381.312 192.723 387.325 C 190.681 392.955 188.882 398.649 188.842 404.692 C 188.743 420.54 198.834 434.66 213.861 439.698 L 213.851 439.698 Z " fill="rgb(255,255,255)"/><path d=" M 203.044 454.432 C 191.974 463.048 186.788 477.223 189.682 490.949 C 190.086 492.823 190.612 494.669 191.257 496.474 C 192.694 500.341 194.377 504.112 196.296 507.764 C 197.747 510.636 199.277 513.488 200.862 516.276 C 202.447 519.064 204.186 521.797 205.95 524.49 C 208.155 527.977 210.579 531.32 213.21 534.497 C 214.444 535.958 215.772 537.338 217.185 538.627 C 228.984 549.239 246.271 551.054 260.016 543.122 C 273.761 535.19 280.84 519.314 277.554 503.789 C 277.149 501.915 276.623 500.069 275.979 498.263 C 274.541 494.397 272.859 490.626 270.94 486.974 C 269.489 484.102 267.959 481.249 266.374 478.462 C 264.789 475.674 263.049 472.941 261.285 470.248 C 259.073 466.762 256.64 463.421 254.001 460.245 C 252.767 458.784 251.439 457.405 250.026 456.116 C 236.83 444.274 217.053 443.565 203.044 454.432 Z " fill="rgb(255,255,255)"/><path d=" M 407.588 560.823 C 396.519 569.44 391.333 583.615 394.227 597.34 C 394.631 599.215 395.157 601.06 395.802 602.866 C 397.239 606.733 398.922 610.504 400.84 614.156 C 402.291 617.028 403.822 619.88 405.407 622.668 C 406.992 625.455 408.731 628.188 410.495 630.881 C 412.699 634.369 415.124 637.711 417.755 640.889 C 418.989 642.35 420.317 643.729 421.73 645.018 C 433.531 655.615 450.809 657.419 464.544 649.489 C 478.279 641.559 485.356 625.694 482.079 610.175 C 481.674 608.301 481.148 606.456 480.504 604.65 C 479.066 600.783 477.383 597.012 475.465 593.36 C 474.014 590.488 472.484 587.636 470.898 584.848 C 469.313 582.061 467.574 579.328 465.81 576.635 C 463.606 573.147 461.181 569.805 458.55 566.627 C 457.316 565.166 455.988 563.787 454.575 562.498 C 441.379 550.657 421.602 549.95 407.593 560.818 L 407.588 560.823 Z " fill="rgb(255,255,255)"/><path d=" M 416.15 545.215 C 429.147 550.493 444.016 547.897 454.456 538.527 C 455.869 537.238 457.197 535.859 458.431 534.398 C 461.062 531.22 463.487 527.877 465.691 524.39 C 467.455 521.697 469.169 518.964 470.779 516.177 C 472.389 513.389 473.9 510.537 475.346 507.665 C 477.264 504.013 478.947 500.242 480.384 496.375 C 481.029 494.569 481.555 492.724 481.96 490.849 C 485.231 475.334 478.154 459.475 464.421 451.547 C 450.689 443.619 433.416 445.421 421.616 456.012 C 420.203 457.3 418.875 458.68 417.641 460.141 C 415.01 463.319 412.585 466.661 410.381 470.149 C 408.617 472.842 406.903 475.575 405.293 478.362 C 403.683 481.15 402.172 484.002 400.726 486.874 C 398.808 490.525 397.125 494.294 395.687 498.159 C 395.048 499.965 394.527 501.811 394.127 503.684 C 390.472 521.033 399.748 538.513 416.165 545.211 L 416.15 545.215 Z " fill="rgb(255,255,255)"/><path d=" M 211.844 651.806 C 224.841 657.084 239.71 654.487 250.15 645.118 C 251.563 643.829 252.891 642.449 254.125 640.988 C 256.756 637.811 259.181 634.468 261.385 630.981 C 263.149 628.288 264.863 625.555 266.473 622.767 C 268.083 619.979 269.594 617.127 271.04 614.255 C 272.958 610.603 274.641 606.832 276.078 602.965 C 276.723 601.16 277.249 599.314 277.653 597.44 C 280.924 581.925 273.847 566.065 260.115 558.137 C 246.383 550.21 229.11 552.011 217.31 562.602 C 215.896 563.891 214.569 565.27 213.334 566.731 C 210.704 569.909 208.279 573.252 206.075 576.739 C 204.311 579.432 202.596 582.165 200.986 584.953 C 199.376 587.74 197.851 590.583 196.415 593.46 C 194.501 597.114 192.823 600.886 191.391 604.754 C 190.747 606.56 190.22 608.406 189.816 610.28 C 186.161 627.629 195.437 645.109 211.854 651.806 L 211.844 651.806 Z " fill="rgb(255,255,255)"/><circle vector-effect="non-scaling-stroke" cx="46.48464149897093" cy="444.1605554272704" r="11.384022376870234" fill="rgb(255,255,255)"/><path d=" M 527.675 342.37 C 523.54 339.989 518.257 341.405 515.868 345.535 L 466.769 430.58 C 465.224 433.257 465.224 436.555 466.77 439.232 C 468.316 441.909 471.172 443.558 474.263 443.558 C 477.354 443.558 480.21 441.908 481.756 439.231 L 530.84 354.187 C 533.228 350.049 531.811 344.76 527.675 342.37 L 527.675 342.37 Z " fill="rgb(255,255,255)"/></g></g></svg>